<mxfile host="app.diagrams.net" modified="2023-09-28T01:48:13.349Z" agent="Mozilla/5.0 (Macintosh; Intel Mac OS X 10_15_7) AppleWebKit/537.36 (KHTML, like Gecko) Chrome/117.0.0.0 Safari/537.36" version="21.8.2" etag="YFs0q02qftXRM-uZsJev" type="github">
  <diagram name="第 1 页" id="bhqKMjDu3R1R9zMbwyO1">
    <mxGraphModel>
      <root>
        <mxCell id="0" />
        <mxCell id="1" parent="0" />
      </root>
    </mxGraphModel>
  </diagram>
</mxfile>
